<?xml version="1.0" encoding="utf-8"?>
<svg version="1.1" xmlns="http://www.w3.org/2000/svg" xmlns:xlink="http://www.w3.org/1999/xlink" x="0px" y="0px"
	 viewBox="0 0 1390.2 321.6" style="enable-background:new 0 0 1390.2 321.6;" xml:space="preserve">
<style type="text/css">
	.st0{fill:none;}
	.st1{fill:#005F93;}
</style>
<path d="M748.1,284.2c1.7,0.1,3.4-0.4,4.7-1.5c1.1-1.1,1.6-2.6,1.6-4.1c0-1.6-0.5-3.1-1.6-4.2c-1.3-1.2-3-1.8-4.8-1.7
	c-1.7-0.1-3.4,0.5-4.7,1.7c-1.2,1.1-1.9,2.6-1.9,4.3h-6.8l-0.1-0.2c-0.2-3.1,1.1-6.1,3.7-8c2.7-2.1,6.1-3.2,9.6-3.1
	c4.2,0,7.6,1,10.1,2.9c2.5,1.9,3.9,4.9,3.7,8.1c0,1.7-0.5,3.4-1.6,4.8c-1.1,1.5-2.6,2.7-4.3,3.4c1.9,0.6,3.6,1.8,4.8,3.4
	c1.1,1.6,1.7,3.6,1.7,5.6c0.1,3.3-1.4,6.4-4,8.3c-2.7,2-6.1,3-10.4,3c-3.5,0.1-7-1-9.8-3c-2.7-2-4.2-5.2-3.9-8.6l0.1-0.2h6.8
	c0,1.8,0.6,3.5,1.9,4.7c1.4,1.3,3.3,2,5.2,1.9c1.9,0.1,3.7-0.5,5.1-1.8c1.2-1.2,1.9-2.8,1.8-4.5c0.1-1.7-0.5-3.4-1.7-4.6
	c-1.5-1.1-3.3-1.6-5.1-1.5h-5.7v-5.1L748.1,284.2z"/>
<path d="M769.8,286.7c0-5.7,1.3-10.3,4-13.9c4.7-6.1,13.4-7.2,19.5-2.5c1,0.7,1.8,1.6,2.5,2.5c2.7,3.6,4,8.3,4,13.9v0.9
	c0,5.7-1.3,10.3-4,13.9c-4.8,6.1-13.5,7.2-19.6,2.4c-0.9-0.7-1.7-1.5-2.4-2.4c-2.7-3.6-4-8.2-4-13.9L769.8,286.7z M777,287.7
	c-0.1,3.4,0.6,6.9,2,10c1,2.4,3.4,3.9,6,3.9c2.6,0,4.6-1.3,5.9-3.9c1.4-3.1,2.1-6.6,2-10v-0.9c0.1-3.4-0.6-6.8-2-9.9
	c-1.3-2.6-3.3-3.9-5.9-3.9s-4.6,1.3-5.9,3.9c-1.4,3.1-2.1,6.5-2,9.9L777,287.7z"/>
<path d="M836,306.2h-7.2v-16.3h-13v16.3h-7.2v-38.1h7.2v16.4h13v-16.4h7.2L836,306.2z"/>
<path d="M866,306.2c-0.3-1.2-0.5-2.2-0.7-3.1c-0.2-0.9-0.3-1.8-0.3-2.7c-1,1.8-2.3,3.4-4,4.7c-1.6,1.2-3.6,1.9-5.7,1.8
	c-3.4,0-6-1-7.8-3c-1.8-2-2.7-4.8-2.7-8.3c-0.1-3.3,1.3-6.4,3.8-8.5c2.5-2.1,6-3.1,10.6-3.1h5.8v-3.9c0.1-1.9-0.4-3.9-1.6-5.4
	c-2.2-2.4-6-2.6-8.5-0.4c0,0-0.1,0.1-0.1,0.1c-1,1.2-1.6,2.7-1.5,4.3h-6.8l-0.1-0.2c-0.1-3,1.2-5.9,3.4-7.8c2.6-2.3,6.1-3.5,9.6-3.4
	c3.4-0.1,6.7,1.1,9.2,3.3c2.3,2.2,3.5,5.4,3.5,9.5v17.7c0,1.4,0.1,2.8,0.3,4.3c0.2,1.4,0.5,2.7,0.9,4.1L866,306.2z M856.8,301.4
	c1.9,0,3.7-0.6,5.2-1.8c1.4-1.1,2.5-2.6,3-4.4v-6.8h-6c-2-0.1-3.8,0.7-5.2,2.1c-1.2,1.4-1.9,3.2-1.9,5.1c-0.1,1.5,0.4,3,1.3,4.2
	C854.1,300.9,855.4,301.5,856.8,301.4L856.8,301.4z"/>
<path d="M926.5,273.5h-10.8v32.7h-7.2v-32.7h-10.6v-5.5h28.6V273.5z"/>
<path d="M932.3,286.7c0-5.7,1.3-10.3,4-13.9c4.7-6.1,13.4-7.2,19.5-2.5c1,0.7,1.8,1.6,2.5,2.5c2.7,3.6,4,8.3,4,13.9v0.9
	c0,5.7-1.3,10.3-4,13.9c-4.8,6.1-13.5,7.2-19.6,2.4c-0.9-0.7-1.7-1.5-2.4-2.4c-2.7-3.6-4-8.2-4-13.9L932.3,286.7z M939.5,287.7
	c-0.1,3.4,0.6,6.9,2,10c1,2.4,3.4,3.9,6,3.9c2.6,0,4.6-1.3,5.9-3.9c1.4-3.1,2.1-6.6,2-10v-0.9c0.1-3.4-0.6-6.8-2-9.9
	c-1.3-2.6-3.3-3.9-5.9-3.9s-4.6,1.3-5.9,3.9c-1.4,3.1-2.1,6.5-2,9.9L939.5,287.7z"/>
<path d="M971.5,306.2v-38.1h13.2c4.3,0,7.6,0.9,10.1,2.6c2.4,1.7,3.6,4.3,3.6,7.8c0,1.8-0.5,3.5-1.6,4.9c-1.1,1.5-2.7,2.6-4.4,3.2
	c2.1,0.4,4.1,1.5,5.5,3.2c1.3,1.6,2,3.6,1.9,5.6c0,3.5-1.1,6.2-3.4,8c-2.3,1.8-5.5,2.7-9.6,2.7L971.5,306.2z M978.6,284.4h6.5
	c1.6,0.1,3.2-0.4,4.5-1.4c2-2.3,2-5.8-0.1-8.1c-1.4-1-3.1-1.5-4.9-1.4h-6.1L978.6,284.4z M978.6,289.4v11.4h8.2
	c1.6,0.1,3.2-0.4,4.3-1.5c2.4-2.1,2.6-5.7,0.5-8.1c-1.2-1.4-3-2.1-4.8-1.9L978.6,289.4z"/>
<path d="M1028.4,306.2c-0.3-1.2-0.5-2.2-0.7-3.1c-0.2-0.9-0.3-1.8-0.3-2.7c-1,1.8-2.3,3.4-4,4.7c-1.6,1.2-3.6,1.9-5.7,1.8
	c-3.4,0-6-1-7.8-3c-1.8-2-2.7-4.8-2.7-8.3c-0.1-3.3,1.3-6.4,3.8-8.5c2.5-2.1,6-3.1,10.6-3.1h5.8v-3.9c0.1-1.9-0.4-3.9-1.6-5.4
	c-2.2-2.4-6-2.6-8.5-0.4c0,0-0.1,0.1-0.1,0.1c-1,1.2-1.6,2.7-1.5,4.3h-6.8l-0.1-0.2c-0.1-3,1.2-5.9,3.4-7.8c2.6-2.3,6.1-3.5,9.6-3.4
	c3.4-0.1,6.7,1.1,9.2,3.3c2.3,2.2,3.5,5.4,3.5,9.5v17.7c0,1.4,0.1,2.8,0.3,4.3c0.2,1.4,0.5,2.7,0.9,4.1L1028.4,306.2z M1019.2,301.4
	c1.9,0,3.7-0.6,5.2-1.8c1.4-1.1,2.5-2.6,3-4.4v-6.8h-6c-2-0.1-3.8,0.7-5.2,2.1c-1.2,1.4-1.9,3.2-1.9,5.1c-0.1,1.5,0.4,3,1.3,4.2
	C1016.5,300.9,1017.8,301.5,1019.2,301.4z"/>
<path d="M1073.2,288.3c0,5.6-1.1,10.1-3.4,13.5c-2,3.2-5.6,5.2-9.4,5.1c-1.7,0-3.4-0.3-5-1.1c-1.5-0.8-2.7-1.9-3.7-3.3v18.3h-7.2
	v-52.8h6.1l0.7,4.6c0.9-1.6,2.2-3,3.8-3.9c1.6-0.9,3.4-1.4,5.3-1.4c4,0,7.2,1.8,9.4,5.5c2.2,3.7,3.4,8.6,3.4,14.7L1073.2,288.3z
	 M1066,287.6c0.1-3.6-0.5-7.2-1.9-10.6c-1.3-2.7-3.1-4.1-5.7-4.1c-1.5,0-2.9,0.4-4.1,1.3c-1.2,1-2.1,2.2-2.6,3.6V297
	c0.6,1.3,1.5,2.5,2.6,3.3c1.2,0.8,2.6,1.2,4.1,1.2c2.4,0.1,4.7-1.4,5.6-3.6c1.4-3,2-6.3,1.9-9.6L1066,287.6z"/>
<path d="M1080.6,286.7c0-5.7,1.3-10.3,4-13.9c4.7-6.1,13.4-7.2,19.5-2.5c1,0.7,1.8,1.6,2.5,2.5c2.7,3.6,4,8.3,4,13.9v0.9
	c0,5.7-1.3,10.3-4,13.9c-4.8,6.1-13.5,7.2-19.6,2.4c-0.9-0.7-1.7-1.5-2.4-2.4c-2.7-3.6-4-8.2-4-13.9L1080.6,286.7z M1087.8,287.7
	c-0.1,3.4,0.6,6.9,2,10c1,2.4,3.4,3.9,6,3.9c2.6,0,4.6-1.3,5.9-3.9c1.4-3.1,2.1-6.6,2-10v-0.9c0.1-3.4-0.6-6.8-2-9.9
	c-1.3-2.6-3.3-3.9-5.9-3.9c-2.6,0-4.6,1.3-5.9,3.9c-1.4,3.1-2.1,6.5-2,9.9L1087.8,287.7z"/>
<path d="M1119.8,306.2v-38.1h13.2c4.3,0,7.6,0.9,10.1,2.6c2.4,1.7,3.6,4.3,3.6,7.8c0,1.8-0.5,3.5-1.6,4.9c-1.1,1.5-2.7,2.6-4.4,3.2
	c2.1,0.4,4.1,1.5,5.5,3.2c1.3,1.6,2,3.6,1.9,5.6c0,3.5-1.1,6.2-3.4,8c-2.3,1.8-5.5,2.7-9.6,2.7L1119.8,306.2z M1127,284.4h6.5
	c1.6,0.1,3.2-0.4,4.5-1.4c2-2.3,2-5.8-0.1-8.1c-1.4-1-3.1-1.5-4.9-1.4h-6.1L1127,284.4z M1127,289.4v11.4h8.2
	c1.6,0.1,3.2-0.4,4.3-1.5c2.4-2.1,2.6-5.7,0.5-8.1c-1.2-1.4-3-2.1-4.8-1.9L1127,289.4z"/>
<path d="M1195,268.1h7.2v38.1h-7.2v-25.9h-0.2l-12.9,25.9h-7.2v-38.1h7.2v26h0.2L1195,268.1z"/>
<path d="M1240.9,293.1l0.6,2.6h0.2l7.5-27.6h7.8l-13.6,44c-0.8,2.4-2,4.7-3.6,6.7c-1.7,1.9-4.2,2.9-6.7,2.8c-0.6,0-1.3-0.1-1.9-0.2
	c-0.7-0.1-1.3-0.3-2-0.4l0.8-5.3c0.2,0,0.6,0.1,1,0.1s0.8,0.1,1.1,0.1c1.4,0,2.6-0.6,3.3-1.8c0.9-1.3,1.5-2.7,1.9-4.2l1.3-3.9
	l-12-37.9h7.8L1240.9,293.1z"/>
<path d="M1276.6,301.5c1.7,0,3.3-0.7,4.4-2c1.3-1.6,1.9-3.5,1.8-5.5h6.4l0.1,0.2c0.2,3.4-1.2,6.7-3.6,9.1
	c-5.4,5.1-13.8,4.9-18.9-0.4c-0.4-0.4-0.7-0.8-1.1-1.2c-2.6-3.6-3.8-8.2-3.8-13.7v-1.3c0-5.5,1.3-10.1,3.8-13.7
	c2.5-3.6,6.6-5.6,10.9-5.4c3.5-0.1,6.9,1.3,9.3,3.9c2.4,2.7,3.7,6.3,3.5,10l-0.1,0.2h-6.4c0.1-2.2-0.5-4.4-1.7-6.2
	c-1-1.5-2.7-2.4-4.5-2.4c-2.6-0.1-4.9,1.5-5.8,3.9c-1.3,3.1-1.9,6.4-1.8,9.8v1.3c-0.1,3.4,0.5,6.7,1.8,9.8
	C1271.7,300.1,1274.1,301.6,1276.6,301.5z"/>
<path d="M1325.3,268.1v38.1h-7.2v-32.6h-9.8v11c0,7.5-0.9,13-2.7,16.4c-1.8,3.4-4.9,5.2-9.3,5.2h-1.5v-5.7h1.1
	c2.1,0,3.5-1.1,4.3-3.4c0.7-2.3,1.1-6.4,1.1-12.4v-16.5L1325.3,268.1z"/>
<path d="M1345.8,293.1l0.6,2.6h0.2l7.5-27.6h7.8l-13.6,44c-0.8,2.4-2,4.7-3.6,6.7c-1.7,1.9-4.2,2.9-6.7,2.8c-0.6,0-1.3-0.1-1.9-0.2
	c-0.7-0.1-1.3-0.3-2-0.4l0.8-5.3c0.2,0,0.6,0.1,1,0.1s0.8,0.1,1.1,0.1c1.4,0,2.6-0.6,3.3-1.8c0.9-1.3,1.5-2.7,1.9-4.2l1.3-3.9
	l-12-37.9h7.8L1345.8,293.1z"/>
<path d="M1390.2,273.6h-14.4v32.6h-7.2v-38.1h21.6L1390.2,273.6z"/>
<path class="st0" d="M106,103.4l-33,44.9h38.4c6.8,0,12.8,4.4,14.9,10.9L161,112H120C114.1,112,108.7,108.7,106,103.4z"/>
<path d="M52.6,75.3c0-8.1-6.2-14.9-14.3-15.6c8.6,1,14.9,8.7,13.9,17.4c-0.7,6.7-5.7,12.2-12.3,13.6h0.3
	C47.4,89.2,52.6,82.8,52.6,75.3z"/>
<path d="M37.1,59.6L37.1,59.6h0.5C37.4,59.7,37.3,59.6,37.1,59.6z"/>
<path d="M207,102c0.7-1.8,1-3.7,1-5.6c0-8.6-7-15.5-15.6-15.6h-71.6c0.7-1.8,1.1-3.7,1.1-5.7c0-8.6-7-15.5-15.6-15.5H37.1
	c0.2,0,0.3,0,0.5,0c0.2,0,0.5,0,0.7,0c8.6,0.8,15,8.5,14.1,17.1c-0.7,6.8-5.6,12.4-12.3,13.9h36.5l-46.4,63.2l-0.9,1.3
	c-1.7,2.5-2.7,5.5-2.6,8.6c0,8.6,7,15.5,15.6,15.6h69.3c0.2,0,0.4,0,0.4,0l0,0c0.4,0.1,0.8,0.1,1.1,0.2v0.5l-0.3,2.5
	c0,8.6,7,15.5,15.6,15.6H194c-8.5-1.6-14.1-9.9-12.5-18.4c1.4-7.4,7.9-12.8,15.5-12.8c0.5,0,1.1,0,1.6,0.1c-0.6-0.1-1.2-0.1-1.7-0.1
	h-37.6l43-58.5L207,102z M126.4,159.2c-2.1-6.5-8.1-10.9-14.9-10.9H73.1l33-44.9c2.6,5.3,8,8.6,13.9,8.6h41.1L126.4,159.2z"/>
<path d="M25.7,64.2c0.7-0.7,1.4-1.3,2.2-1.9C27.1,62.9,26.4,63.5,25.7,64.2z"/>
<path class="st1" d="M208.1,96.4c0,1.9-0.3,3.8-1,5.6l24.7-33.6c5-7,3.4-16.7-3.6-21.7c-6.9-4.9-16.4-3.5-21.5,3.3L184,80.9h8.6
	C201.1,80.9,208,87.9,208.1,96.4z"/>
<path class="st1" d="M181.3,182.7c0,7.5,5.3,14,12.7,15.4h2.9c8.6,0,15.6-7,15.6-15.6c0-6.4-3.9-12.1-9.8-14.5
	c-0.4-0.1-0.8-0.3-1.2-0.4c-0.9-0.3-1.9-0.5-2.9-0.6c-0.5-0.1-1.1-0.1-1.6-0.1C188.3,167,181.3,174,181.3,182.7L181.3,182.7z"/>
<path class="st1" d="M121.9,75.2c0,2-0.4,3.9-1.1,5.7h1.8l25.5-34.8c5.1-6.9,3.6-16.7-3.3-21.8s-16.7-3.6-21.8,3.3l-23.5,32h6.8
	C114.9,59.7,121.9,66.6,121.9,75.2z"/>
<path class="st1" d="M112.8,182.6l0.3-2.5v-0.5c-0.4,0-0.8-0.1-1.1-0.2l0,0c-0.1,0-0.2,0-0.4,0l-0.3,0.5l-24.2,33
	c-5.1,6.9-3.7,16.6,3.1,21.8c6.9,5.1,16.6,3.7,21.8-3.1c0-0.1,0.1-0.1,0.1-0.2l24.4-33.2h-8.1C119.8,198.1,112.8,191.2,112.8,182.6z
	"/>
<path class="st1" d="M26.7,163.9c0-3.1,0.9-6.1,2.6-8.6L3.2,190.8c-5.2,6.9-3.9,16.6,3,21.8c6.9,5.2,16.6,3.9,21.8-3
	c0.1-0.1,0.2-0.3,0.3-0.4l21.9-29.8h-8C33.6,179.4,26.7,172.4,26.7,163.9z"/>
<path class="st1" d="M52.4,75.3c0-8-6.1-14.8-14.1-15.6c-0.2,0-0.5,0-0.7,0h-0.5c0,0-0.1,0-0.1,0h-0.3c-0.4,0-0.9,0-1.3,0.1
	c-1.1,0.1-2.2,0.3-3.3,0.6c-0.4,0.1-0.7,0.2-1.1,0.4c-0.6,0.2-1.2,0.5-1.7,0.8L29,61.7l-1,0.6h-0.1c-0.8,0.6-1.5,1.2-2.2,1.9
	c0,0,0,0-0.1,0.1c-5.3,5.3-6.2,13.6-2,19.8c0,0,0,0.1,0.1,0.1c2.9,4.1,7.7,6.6,12.7,6.6h3.4C47.1,89.3,52.4,82.8,52.4,75.3z"/>
<path class="st1" d="M37.6,59.7c0.2,0,0.5,0,0.7,0C38.1,59.7,37.8,59.7,37.6,59.7z"/>
<path class="st1" d="M979.1,192.3h-6.7l0,0H885L981.8,89V49.4H866.7c-0.5-0.1-1-0.1-1.5-0.1h-27.3c-7.1,0-12.8,5.8-12.8,12.8v14
	c0,7.1,5.8,12.8,12.8,12.8h84.5l-97.2,103.3v39.6h124.9c0.6,0.1,1.1,0.1,1.7,0.1h27.3c7.1,0,12.8-5.8,12.8-12.8v-14
	C992,198.1,986.2,192.3,979.1,192.3z"/>
<path class="st1" d="M752.1,185.4c-2.6-1.4-5-3.2-7-5.4c-1.9-2.3-3.3-5-4-7.9V91.8h1.5c1,0.2,2,0.4,3,0.4h27.3
	c7.1,0,12.9-5.7,13-12.8c0,0,0-0.1,0-0.1V61.9c0-7.1-5.8-12.8-12.8-12.8h-4.9V49h-27V0h-43.9v178.2c0,12.5,2.6,22.3,7.7,29.3
	c5.2,7.1,10.9,12.4,17.1,16c7.7,4.4,16.3,7.1,25.2,7.9h43.9v-43.5h-27.3C759,187.9,755.1,187.1,752.1,185.4z"/>
<path class="st1" d="M1177.9,83.3c-3.6-6.4-8.2-12.2-13.7-17.1c-4.8-4.3-10-8-15.7-11.2c-12.5-6.7-26.7-10.3-42.5-10.7
	c-16.1,0.5-30.4,4.1-42.8,10.8c-5.6,3.1-10.9,6.9-15.7,11.2c-5.5,4.9-10.1,10.7-13.7,17.1c-4.3,7.6-7.5,15.8-9.5,24.3
	c-2.4,9.3-3.6,20.3-3.6,32.8c0,12.5,1.2,23.4,3.6,32.8c2,8.4,5.2,16.6,9.5,24.1c3.6,6.3,8.2,12,13.7,16.7c4.8,4.2,10.1,7.9,15.7,11
	c12.5,6.5,26.7,9.8,42.8,10.1c15.8-0.2,30-3.6,42.5-10.1c5.6-3.1,10.8-6.8,15.7-11c5.4-4.8,10.1-10.4,13.7-16.7
	c4.3-7.6,7.6-15.7,9.7-24.1c2.5-9.3,3.8-20.3,3.8-32.8c0-12.5-1.3-23.4-3.8-32.8C1185.5,99.2,1182.2,91,1177.9,83.3z M1145.7,157.7
	c-0.9,6.1-2.9,12-5.8,17.5c-2.9,5.5-7.2,10.1-12.4,13.5c-5.4,3.6-12.5,5.4-21.4,5.4c-8.9,0-16-1.8-21.4-5.4
	c-5.2-3.4-9.5-8-12.4-13.5c-2.9-5.4-4.8-11.4-5.8-17.5c-1.9-11.4-1.9-23.1,0-34.6c0.9-6.1,2.9-12,5.8-17.5
	c2.9-5.5,7.2-10.1,12.4-13.5c5.4-3.6,12.5-5.4,21.4-5.4c8.9,0,16,1.8,21.4,5.4c5.2,3.4,9.5,8,12.4,13.5c2.9,5.5,4.8,11.4,5.8,17.5
	C1147.6,134.5,1147.6,146.2,1145.7,157.7z"/>
<path class="st1" d="M1383.1,99.9c-3.7-10.9-8.5-20-14.2-27.2c-5.1-6.7-11.5-12.3-18.7-16.6c-6-3.5-12.4-6.4-19.1-8.5
	c-5.1-1.6-10.3-2.7-15.7-3.1c-4.4-0.2-7-0.4-7.7-0.4c-1,0-3.6,0.1-7.9,0.4c-5.3,0.4-10.5,1.4-15.5,3.1c-6.7,2.1-13.1,4.9-19.1,8.5
	c-7.2,4.3-13.6,9.9-18.7,16.6c-5.8,7.2-10.5,16.3-14.2,27.2c-3.7,10.9-5.6,24.4-5.6,40.5v91.1h43.9v-91.1c0-5.4,0.5-10.9,1.4-16.2
	c0.9-5.3,2.7-10.4,5.4-15.1c2.7-4.6,6.6-8.5,11.2-11.3c4.8-3,11.2-4.5,19.1-4.5c7.9,0,14.3,1.5,19.1,4.5c4.6,2.8,8.4,6.7,11.2,11.3
	c2.7,4.7,4.5,9.8,5.4,15.1c0.9,5.3,1.4,10.8,1.4,16.2v91.1h43.9v-91.1C1388.7,124.4,1386.8,110.9,1383.1,99.9z"/>
<path class="st1" d="M647,83.3c-3.6-6.4-8.2-12.2-13.7-17.1c-4.8-4.3-10-8-15.7-11.2c-12.5-6.7-26.6-10.3-42.5-10.8
	c-16.1,0.5-30.4,4.1-42.8,10.8c-5.6,3.1-10.9,6.9-15.7,11.2c-5.5,4.9-10.1,10.7-13.7,17.1c-4.3,7.6-7.5,15.8-9.5,24.3
	c-2.4,9.3-3.6,20.3-3.6,32.8c0,12.5,1.2,23.4,3.6,32.8c2,8.4,5.2,16.6,9.5,24.1c3.6,6.3,8.2,12,13.7,16.7c4.8,4.2,10.1,7.9,15.7,11
	c12.5,6.5,26.8,9.8,42.8,10.1c15.8-0.2,30-3.6,42.5-10.1c5.6-3.1,10.8-6.8,15.7-11c5.5-4.8,10.1-10.4,13.7-16.7
	c4.3-7.6,7.6-15.7,9.7-24.1c2.5-9.3,3.8-20.3,3.8-32.8s-1.3-23.4-3.8-32.8C654.5,99.1,651.3,91,647,83.3z M614.8,157.7
	c-0.9,6.1-2.9,12-5.8,17.5c-2.9,5.5-7.2,10.1-12.4,13.5c-5.4,3.6-12.5,5.4-21.4,5.4c-8.9,0-16-1.8-21.4-5.4
	c-5.2-3.4-9.5-8-12.4-13.5c-2.9-5.5-4.8-11.4-5.8-17.5c-1.9-11.4-1.9-23.1,0-34.6c0.9-6.1,2.9-12,5.8-17.5
	c2.9-5.5,7.2-10.1,12.4-13.5c5.4-3.6,12.5-5.4,21.4-5.4s16,1.8,21.4,5.4c5.2,3.4,9.5,8,12.4,13.5c2.9,5.5,4.8,11.4,5.8,17.5
	C616.7,134.5,616.7,146.2,614.8,157.7z"/>
<path class="st1" d="M447.6,191.9h-6.8l0,0h-87.4l96.8-103.3V49H335.1c-0.5-0.1-1-0.1-1.5-0.1h-27.3c-7.1,0-12.8,5.8-12.8,12.8v14
	c0,7.1,5.8,12.8,12.8,12.8h84.5l-97.2,103.3v39.6h124.9c0.6,0.1,1.1,0.1,1.7,0.1h27.3c7.1,0,12.8-5.8,12.8-12.8v-14
	C460.4,197.7,454.7,191.9,447.6,191.9z"/>
</svg>
